<svg id="图层_1" data-name="图层 1" xmlns="http://www.w3.org/2000/svg" xmlns:xlink="http://www.w3.org/1999/xlink" viewBox="0 0 664.04 664"><defs><style>.cls-1{fill:none;}.cls-2{fill:#fb7299;}.cls-3{clip-path:url(#clip-path);}.cls-4{fill:#fff;}</style><clipPath id="clip-path" transform="translate(0.04 0)"><rect class="cls-1" x="0.12" width="663.88" height="664"/></clipPath></defs><title>box</title><polygon class="cls-2" points="127.54 25.28 35.16 201.96 27.46 619.66 630.44 638.04 624.91 180.51 521.76 17.11 127.54 25.28"/><g class="cls-3"><path class="cls-4" d="M663.36,217a34.71,34.71,0,0,1,.48,5.76V627c0,1.12-.08,2.16-.16,3.28A35.76,35.76,0,0,1,628.12,664H35.84A35.71,35.71,0,0,1,.12,628.32V222.72a39.59,39.59,0,0,1,.4-5.44A54.17,54.17,0,0,1,.12,211V187.2L0,187.12,93.52,25.28A47.13,47.13,0,0,1,133,1.6,36.33,36.33,0,0,1,143.6,0H520a36.56,36.56,0,0,1,11.36,1.84,47.41,47.41,0,0,1,39.2,23.68L664,187.36l-.48.32V211a29.29,29.29,0,0,1-.16,5.92Zm-63.52-28.8a54.92,54.92,0,0,1-3.68-6.4L529.6,46.4H148.12L78.4,188.16Zm4.88,48H59.36V615.6H604.72Z" transform="translate(0.04 0)"/></g><path class="cls-4" d="M514.48,430.24h-192a22.4,22.4,0,0,1,0-44.8h192a22.4,22.4,0,0,1,0,44.8ZM308.4,223.68V13.44a1.6,1.6,0,0,1,1.6-1.6h44.24a1.6,1.6,0,0,1,1.6,1.6h0V223.68a1.6,1.6,0,0,1-1.6,1.6H310a1.6,1.6,0,0,1-1.6-1.6Zm206.48,309h-312a22.4,22.4,0,1,1,0-44.8h312a22.4,22.4,0,0,1,0,44.8Z" transform="translate(0.04 0)"/></svg>