<?xml version="1.0" standalone="no"?><!DOCTYPE svg PUBLIC "-//W3C//DTD SVG 1.1//EN" "http://www.w3.org/Graphics/SVG/1.1/DTD/svg11.dtd"><svg t="1651058949970" class="icon" viewBox="0 0 1024 1024" version="1.1" xmlns="http://www.w3.org/2000/svg" p-id="15631" width="500" height="500" xmlns:xlink="http://www.w3.org/1999/xlink"><defs><style type="text/css">@font-face { font-family: feedback-iconfont; src: url("//at.alicdn.com/t/font_1031158_u69w8yhxdu.woff2?t=1630033759944") format("woff2"), url("//at.alicdn.com/t/font_1031158_u69w8yhxdu.woff?t=1630033759944") format("woff"), url("//at.alicdn.com/t/font_1031158_u69w8yhxdu.ttf?t=1630033759944") format("truetype"); }
</style></defs><path d="M512 438.2c247.4 0 448-69.4 448-155s-200.6-155-448-155-448 69.4-448 155 200.6 155 448 155z m380.4-8c-99 44.9-242.6 66.2-380.4 66.2-137.8 0-281.4-21.3-380.4-66.2C88.8 453.9 64 481.9 64 512c0 85.6 200.6 155 448 155s448-69.4 448-155c0-30.1-24.8-58.1-67.6-81.8z m0 228.8c-99 44.9-242.6 66.2-380.4 66.2-137.8 0-281.4-21.3-380.4-66.2C88.8 682.7 64 710.7 64 740.8c0 85.6 200.6 155 448 155s448-69.4 448-155c0-30.1-24.8-58.1-67.6-81.8z" p-id="15632" fill="#fb7299"></path></svg>