<?xml version="1.0" standalone="no"?><!DOCTYPE svg PUBLIC "-//W3C//DTD SVG 1.1//EN" "http://www.w3.org/Graphics/SVG/1.1/DTD/svg11.dtd"><svg t="1651062462717" class="icon" viewBox="0 0 1025 1024" version="1.1" xmlns="http://www.w3.org/2000/svg" p-id="21201" xmlns:xlink="http://www.w3.org/1999/xlink" width="500.48828125" height="500"><defs><style type="text/css">@font-face { font-family: feedback-iconfont; src: url("//at.alicdn.com/t/font_1031158_u69w8yhxdu.woff2?t=1630033759944") format("woff2"), url("//at.alicdn.com/t/font_1031158_u69w8yhxdu.woff?t=1630033759944") format("woff"), url("//at.alicdn.com/t/font_1031158_u69w8yhxdu.ttf?t=1630033759944") format("truetype"); }
</style></defs><path d="M512.885747 991.910717v-501.909292a32.089283 32.089283 0 0 1 20.021519-29.895143l449.249956-177.45099a31.540748 31.540748 0 0 1 42.78571 29.895143v461.317721a32.089283 32.089283 0 0 1-18.101646 29.072342l-448.97569 218.042561a31.540748 31.540748 0 0 1-44.979849-29.072342zM69.121138 178.43369L499.172379 2.354037a30.717946 30.717946 0 0 1 23.586994 0L948.97087 175.416749a32.36355 32.36355 0 0 1 0 60.064555L473.391246 411.560957a31.26648 31.26648 0 0 1-23.586994 0L68.024069 237.675443a32.36355 32.36355 0 0 1 1.097069-59.241753z m345.57689 837.886824L16.187536 790.598466a32.36355 32.36355 0 0 1-16.181775-27.426737V314.470307a31.540748 31.540748 0 0 1 43.882779-29.620876l398.510493 174.708316a32.089283 32.089283 0 0 1 19.198716 29.620876V987.522439a31.540748 31.540748 0 0 1-46.899721 28.798075zM99.839084 526.753253a32.36355 32.36355 0 0 0 15.358973 27.426738l179.645129 109.706949a31.540748 31.540748 0 0 0 47.722523-27.426738 32.089283 32.089283 0 0 0-15.358973-27.426737l-179.645129-109.706949a31.540748 31.540748 0 0 0-47.722523 27.426737z" p-id="21202" fill="#ffffff"></path></svg>